# xmcd
#
# Track frame offsets: 
#        150
#        13820
#        25961
#        37187
#        50858
#        62915
#        77385
#        91293
#        103473
#        118330
#        132688
#        147005
#        159548
#        173493
#        186820
#        201079
#        212038
#        225862
#        237193
#        249234
#
# Disc length: 3474 seconds
#
# Revision: 0
# Processed by: cddbd v1.5.1PL0 Copyright (c) Steve Scherf et al.
# Submitted via: ExactAudioCopy v0.95a4
#
DISCID=1a0d9014
DTITLE=Ella Fitzgerald - Ella - Disc 3
DYEAR=2004
DGENRE=Blues
TTITLE0=Just A Simple Melody
TTITLE1=I Found My Yellow Basket
TTITLE2=Walkin' By The River
TTITLE3=Foolish Tears
TTITLE4=What Does It Take
TTITLE5=I'll Never Be Free
TTITLE6=Five O'Clock Whistle
TTITLE7=Patootie Pie
TTITLE8=A Man Wrote A Song
TTITLE9=To Make A Mistake Is Human
TTITLE10=Swinging On The Reservation
TTITLE11=Cabin In The Sky
TTITLE12=The One I Love (Belongs To Somebody Else)
TTITLE13=Out Of Nowhere
TTITLE14=Takin' A Chance On Love
TTITLE15=Goody Goody
TTITLE16=Moon Ray
TTITLE17=Vote For Mister Rhythm
TTITLE18=I'm The Lonesomest Gal In Town
TTITLE19=Baby Won't You Please Come Home
EXTD=
EXTT0=
EXTT1=
EXTT2=
EXTT3=
EXTT4=
EXTT5=
EXTT6=
EXTT7=
EXTT8=
EXTT9=
EXTT10=
EXTT11=
EXTT12=
EXTT13=
EXTT14=
EXTT15=
EXTT16=
EXTT17=
EXTT18=
EXTT19=
PLAYORDER=
